<svg width="38" height="46" viewBox="0 0 38 46" fill="none" xmlns="http://www.w3.org/2000/svg">
<g id="SVG" clip-path="url(#clip0_1_455)">
<path id="Vector" d="M32.7541 18.6796H30.8334L30.8329 12.6136C30.8329 6.19528 25.0099 0.973389 17.8525 0.973389C10.6953 0.973389 4.87218 6.19528 4.87218 12.6137V18.6797H2.95132C1.43284 18.6797 0.20166 19.7836 0.20166 21.1453V22.6454V39.7578V41.2577C0.20166 42.6195 1.43275 43.7235 2.95132 43.7235H17.8526H32.7541C34.2724 43.7235 35.5034 42.6195 35.5034 41.2577V39.7578V22.6454V21.1453C35.5034 19.7835 34.2724 18.6796 32.7541 18.6796ZM20.7792 36.3416H14.926L15.9736 31.8653C14.9939 31.3063 14.3395 30.3301 14.3395 29.2116C14.3395 27.4718 15.9125 26.0613 17.8526 26.0613C19.7927 26.0613 21.3654 27.4718 21.3654 29.2116C21.3654 30.3301 20.7112 31.3063 19.7316 31.8651L20.7792 36.3416ZM26.2015 18.6796H17.8526H9.5042L9.50373 12.6136C9.50373 8.48499 13.2488 5.1267 17.8526 5.1267C22.4565 5.1267 26.2015 8.48508 26.2015 12.6136V18.6796Z" fill="white"/>
</g>
<defs>
<clipPath id="clip0_1_455">
<rect width="36.9075" height="44.8875" fill="white" transform="translate(0.201416 0.560059)"/>
</clipPath>
</defs>
</svg>
